# File created by Blade
# Date/Time:  Fri Jan 16 14:33:41 2015
# Frame Rate: 120.000 fps
#------------------------------------------------------
:FULLY-SPECIFIED
:DEGREES
627
root 18.762677 35.743392 -23.788615 -175.626122 -8.158029 -179.880603
Spine -19.363757 12.733614 -7.204410
Head 14.073833 -22.346975 -1.445832
LeftShoulder -5.570128 -15.178744 -4.159374
LeftArm -15.794265 15.353388 -73.040192
LeftForeArm -1.489089 -0.000000 6.121142
LeftHand -1.157932 -0.000000 -1.646620
LeftHandThumb1 -26.253704 0.000000 33.147579
RightShoulder 5.269422 1.177366 -0.286943
RightArm 64.370096 28.845785 65.588187
RightForeArm -13.698423 -0.000000 36.592174
RightHand -2.323235 -0.000000 -4.300234
RightHandThumb1 -24.326973 -0.000000 -32.862282
LeftUpLeg 1.877465 5.008161 -0.097287
LeftLeg -4.496148 -0.000000 0.000000
LeftFoot -18.973065 24.540822 -14.050911
LeftToeBase 24.734813 -0.000000 -0.000000
RightUpLeg 2.415790 -15.626304 1.505323
RightLeg -2.914227 -0.000000 0.000000
RightFoot -21.341303 -26.921484 16.314280
RightToeBase 22.487995 -0.000000 -0.000000
628
root 18.757745 35.742981 -23.783981 -175.595260 -8.167642 -179.883191
Spine -19.340270 12.733401 -7.182075
Head 13.961718 -22.346176 -1.443935
LeftShoulder -5.597972 -15.206538 -4.180604
LeftArm -15.788490 15.382531 -72.969720
LeftForeArm -1.532236 -0.000000 6.115417
LeftHand -1.146063 -0.000000 -1.735040
LeftHandThumb1 -26.253704 0.000000 33.147579
RightShoulder 5.243740 1.176032 -0.369267
RightArm 64.676458 29.100116 66.032289
RightForeArm -14.024212 -0.000000 37.555030
RightHand -2.332731 0.000000 -4.375331
RightHandThumb1 -24.326973 -0.000000 -32.862282
LeftUpLeg 1.837912 5.001004 -0.111864
LeftLeg -4.493503 -0.000000 0.000000
LeftFoot -18.986967 24.542710 -14.051858
LeftToeBase 24.740235 -0.000000 -0.000000
RightUpLeg 2.373072 -15.642933 1.504455
RightLeg -2.904313 -0.000000 0.000000
RightFoot -21.341162 -26.928419 16.303356
RightToeBase 22.494156 -0.000000 -0.000000
629
root 18.754529 35.743057 -23.781224 -175.573760 -8.164370 -179.880525
Spine -19.318860 12.753836 -7.163602
Head 13.866427 -22.355146 -1.445165
LeftShoulder -5.609737 -15.196832 -4.203947
LeftArm -15.748730 15.421712 -72.901884
LeftForeArm -1.565161 0.000000 6.091457
LeftHand -1.156952 0.000000 -1.636290
LeftHandThumb1 -26.253704 0.000000 33.147579
RightShoulder 5.244814 1.184724 -0.439834
RightArm 64.937703 29.377911 66.466716
RightForeArm -14.277449 -0.000000 38.565831
RightHand -2.297763 -0.000000 -4.529267
RightHandThumb1 -24.326973 -0.000000 -32.862282
LeftUpLeg 1.817169 5.022639 -0.117126
LeftLeg -4.503807 -0.000000 0.000000
LeftFoot -18.968100 24.531169 -14.038366
LeftToeBase 24.727229 -0.000000 -0.000000
RightUpLeg 2.343108 -15.650103 1.508399
RightLeg -2.899337 -0.000000 0.000000
RightFoot -21.323703 -26.915120 16.288191
RightToeBase 22.457630 -0.000000 -0.000000
630
root 18.750797 35.742562 -23.777923 -175.555577 -8.158881 -179.878394
Spine -19.285340 12.767176 -7.136816
Head 13.757518 -22.364075 -1.447452
LeftShoulder -5.621291 -15.229504 -4.233568
LeftArm -15.754865 15.423508 -72.821224
LeftForeArm -1.521277 0.000000 6.083957
LeftHand -1.190167 -0.000000 -1.606757
LeftHandThumb1 -26.253704 0.000000 33.147579
RightShoulder 5.233968 1.173031 -0.507758
RightArm 65.285275 29.650446 66.926754
RightForeArm -14.572391 -0.000000 39.514218
RightHand -2.352880 0.000000 -4.651435
RightHandThumb1 -24.326973 -0.000000 -32.862282
LeftUpLeg 1.798921 5.051128 -0.122897
LeftLeg -4.511775 -0.000000 0.000000
LeftFoot -18.952102 24.501583 -13.999809
LeftToeBase 24.738763 -0.000000 -0.000000
RightUpLeg 2.321999 -15.635778 1.506903
RightLeg -2.901618 -0.000000 0.000000
RightFoot -21.326900 -26.915228 16.273191
RightToeBase 22.576157 -0.000000 -0.000000
631
root 18.748365 35.742344 -23.774378 -175.517961 -8.135350 -179.874109
Spine -19.285043 12.817226 -7.131203
Head 13.662874 -22.379544 -1.449865
LeftShoulder -5.620158 -15.233201 -4.260317
LeftArm -15.727330 15.388042 -72.721735
LeftForeArm -1.404584 -0.000000 6.067353
LeftHand -1.172952 -0.000000 -1.667399
LeftHandThumb1 -26.253704 0.000000 33.147579
RightShoulder 5.221240 1.190048 -0.564212
RightArm 65.556293 29.929091 67.315876
RightForeArm -14.784048 -0.000000 40.484265
RightHand -2.353192 0.000000 -4.769090
RightHandThumb1 -24.326973 -0.000000 -32.862282
LeftUpLeg 1.772077 5.051933 -0.126636
LeftLeg -4.538443 -0.000000 0.000000
LeftFoot -18.941733 24.521895 -13.994501
LeftToeBase 24.735109 -0.000000 -0.000000
RightUpLeg 2.270108 -15.613674 1.517846
RightLeg -2.893340 -0.000000 0.000000
RightFoot -21.319156 -26.931428 16.254106
RightToeBase 22.591038 -0.000000 -0.000000
632
root 18.744348 35.742314 -23.771392 -175.487974 -8.135742 -179.883145
Spine -19.274742 12.831015 -7.129940
Head 13.576207 -22.405666 -1.451378
LeftShoulder -5.614962 -15.231559 -4.286881
LeftArm -15.708597 15.346311 -72.625813
LeftForeArm -1.309772 -0.000000 6.054893
LeftHand -1.141426 -0.000000 -1.797785
LeftHandThumb1 -26.253704 0.000000 33.147579
RightShoulder 5.243823 1.205174 -0.605152
RightArm 65.836252 30.236491 67.725475
RightForeArm -14.981603 -0.000000 41.468589
RightHand -2.392937 -0.000000 -4.841694
RightHandThumb1 -24.326973 -0.000000 -32.862282
LeftUpLeg 1.735223 5.088515 -0.146942
LeftLeg -4.530468 -0.000000 0.000000
LeftFoot -18.943624 24.488738 -14.003922
LeftToeBase 24.769376 -0.000000 -0.000000
RightUpLeg 2.240053 -15.593730 1.510467
RightLeg -2.899483 -0.000000 0.000000
RightFoot -21.322156 -26.942343 16.269852
RightToeBase 22.548850 -0.000000 -0.000000
633
root 18.740002 35.741935 -23.768403 -175.461943 -8.130438 -179.886523
Spine -19.255259 12.862889 -7.121217
Head 13.475592 -22.446555 -1.466060
LeftShoulder -5.608074 -15.253804 -4.316083
LeftArm -15.711190 15.354659 -72.557036
LeftForeArm -1.332155 -0.000000 6.045497
LeftHand -1.142002 -0.000000 -1.765227
LeftHandThumb1 -26.253704 0.000000 33.147579
RightShoulder 5.238684 1.231341 -0.657238
RightArm 66.127567 30.535045 68.158818
RightForeArm -15.238615 -0.000000 42.475356
RightHand -2.431475 0.000000 -4.904006
RightHandThumb1 -24.326973 -0.000000 -32.862282
LeftUpLeg 1.709666 5.109630 -0.159845
LeftLeg -4.538703 -0.000000 0.000000
LeftFoot -18.929741 24.472635 -13.972163
LeftToeBase 24.797572 -0.000000 -0.000000
RightUpLeg 2.204658 -15.594955 1.507448
RightLeg -2.891952 -0.000000 0.000000
RightFoot -21.315960 -26.938830 16.241366
RightToeBase 22.551856 -0.000000 -0.000000
